#define image_hunger_half_width 7
#define image_hunger_half_height 7
static unsigned char image_hunger_half_bits[] = { 0x06, 0x0f, 0x17, 0x16, 0x6c, 0x50, 0x30 };
static image_t image_hunger_half = { .width = 7, .height = 7, .bits = image_hunger_half_bits };