#define image_hunger_empty_width 7
#define image_hunger_empty_height 7
static unsigned char image_hunger_empty_bits[] = { 0x06, 0x09, 0x11, 0x12, 0x6c, 0x50, 0x30 };
static image_t image_hunger_empty = { .width = 7, .height = 7, .bits = image_hunger_empty_bits };