#define image_rabbit_hat_side_normal_width 14
#define image_rabbit_hat_side_normal_height 13
static unsigned char image_rabbit_hat_side_normal_bits[] = { 0x3c, 0x00, 0x7e, 0x00, 0x7e, 0x00, 0xff, 0x00, 0x42, 0x00, 0x81, 0x03, 0x09, 0x04, 0x01, 0x18, 0x01, 0x28, 0x06, 0x30, 0x08, 0x13, 0xe4, 0x10, 0x9c, 0x1f };
static image_t image_rabbit_hat_side_normal = { .width = 14, .height = 13, .bits = image_rabbit_hat_side_normal_bits };