#define image_heart_full_width 7
#define image_heart_full_height 7
static unsigned char image_heart_full_bits[] = { 0x36, 0x7f, 0x7f, 0x7f, 0x3e, 0x1c, 0x08 };
static image_t image_heart_full = { .width = 7, .height = 7, .bits = image_heart_full_bits };