#define image_heart_half_width 7
#define image_heart_half_height 7
static unsigned char image_heart_half_bits[] = { 0x36, 0x4f, 0x4f, 0x4f, 0x2e, 0x1c, 0x08 };
static image_t image_heart_half = { .width = 7, .height = 7, .bits = image_heart_half_bits };