#define image_rabbit_basic_side_lowered_width 14
#define image_rabbit_basic_side_lowered_height 12
static unsigned char image_rabbit_basic_side_lowered_bits[] = { 0x28, 0x00, 0x54, 0x00, 0x54, 0x00, 0x54, 0x00, 0xc2, 0x03, 0x01, 0x04, 0x09, 0x18, 0x01, 0x28, 0x01, 0x30, 0x0e, 0x13, 0xe4, 0x10, 0x9c, 0x1f };
static image_t image_rabbit_basic_side_lowered = { .width = 14, .height = 12, .bits = image_rabbit_basic_side_lowered_bits };