#define image_test2_width 16
#define image_test2_height 16
static unsigned char image_test2_bits[] = { 0xc0, 0x07, 0x30, 0x18, 0x08, 0x20, 0x04, 0x40, 0x44, 0x44, 0x02, 0x80, 0x02, 0x80, 0x02, 0x80, 0x22, 0x88, 0x62, 0x8c, 0xc4, 0x47, 0x04, 0x40, 0x08, 0x20, 0x30, 0x18, 0xc0, 0x07, 0x00, 0x00 };
static image_t image_test2 = { .width = 16, .height = 16, .bits = image_test2_bits };