#define image_battery_0_width 4
#define image_battery_0_height 7
static unsigned char image_battery_0_bits[] = { 0x06, 0x0f, 0x09, 0x09, 0x09, 0x09, 0x0f };
static image_t image_battery_0 = { .width = 4, .height = 7, .bits = image_battery_0_bits };