#define image_rabbit_basic_side_sleeping_width 14
#define image_rabbit_basic_side_sleeping_height 13
static unsigned char image_rabbit_basic_side_sleeping_bits[] = { 0x28, 0x00, 0x54, 0x00, 0x54, 0x00, 0x54, 0x00, 0x42, 0x00, 0x81, 0x03, 0x0d, 0x04, 0x01, 0x18, 0x01, 0x28, 0x06, 0x30, 0x08, 0x13, 0xe4, 0x10, 0x9c, 0x1f };
static image_t image_rabbit_basic_side_sleeping = { .width = 14, .height = 13, .bits = image_rabbit_basic_side_sleeping_bits };