#define image_rabbit_hat_front_lowered_width 11
#define image_rabbit_hat_front_lowered_height 13
static unsigned char image_rabbit_hat_front_lowered_bits[] = { 0x04, 0x01, 0x8a, 0x02, 0x8a, 0x02, 0xfe, 0x03, 0xfe, 0x03, 0xff, 0x07, 0x02, 0x02, 0x8a, 0x02, 0x02, 0x02, 0x23, 0x06, 0x05, 0x05, 0xf9, 0x04, 0xfe, 0x03 };
static image_t image_rabbit_hat_front_lowered = { .width = 11, .height = 13, .bits = image_rabbit_hat_front_lowered_bits };