#define image_rabbit_basic_front_sleeping_width 11
#define image_rabbit_basic_front_sleeping_height 13
static unsigned char image_rabbit_basic_front_sleeping_bits[] = { 0x04, 0x01, 0x8a, 0x02, 0x8a, 0x02, 0x8a, 0x02, 0xfa, 0x02, 0x06, 0x03, 0x02, 0x02, 0xda, 0x02, 0x02, 0x02, 0x23, 0x06, 0x05, 0x05, 0xf9, 0x04, 0xfe, 0x03 };
static image_t image_rabbit_basic_front_sleeping = { .width = 11, .height = 13, .bits = image_rabbit_basic_front_sleeping_bits };