#define image_test1_width 16
#define image_test1_height 16
static unsigned char image_test1_bits[] = { 0xff, 0xff, 0x01, 0x80, 0xfd, 0xbf, 0x05, 0xa0, 0xf5, 0xaf, 0x15, 0xa8, 0xd5, 0xab, 0x55, 0xaa, 0x55, 0xaa, 0xd5, 0xab, 0x15, 0xa8, 0xf5, 0xaf, 0x05, 0xa0, 0xfd, 0xbf, 0x01, 0x80, 0xff, 0xff };
static image_t image_test1 = { .width = 16, .height = 16, .bits = image_test1_bits };